<svg width="32" height="32" viewBox="0 0 32 32" fill="none" xmlns="http://www.w3.org/2000/svg">
<path d="M0.979653 9.38735C0.0711813 10.0345 -0.461282 11.4049 0.542433 13.0435C1.54615 14.6821 15.886 25.7425 16.4116 26.0496C16.9375 26.357 17.4636 26.4081 18.8014 25.3329C20.14 24.2574 31.323 15.8566 31.6115 15.6039C32.0707 15.2019 32.1851 14.2213 31.6115 13.7603C31.6115 13.7603 18.0636 23.8989 17.62 24.3088C17.1766 24.7184 16.4865 24.0528 16.6161 23.1824C16.7463 22.3117 16.842 22.2092 18.5627 20.8779C20.2835 19.5465 30.0397 12.1523 30.4823 11.8255C30.9836 11.4551 30.9956 10.8009 30.1746 10.2223C29.0331 9.41799 16.6974 0.645044 16.2847 0.337936C15.8709 0.0305758 15.2983 -0.248679 14.438 0.365789C13.5777 0.980257 2.64865 8.19817 0.979653 9.38735Z" fill="#316DC2"/>
<path d="M16.4116 27.1289C16.0666 26.9271 9.77487 22.0964 5.20485 18.3352V26.1774C5.20131 31.9021 21.33 34.9607 26.6733 27.9234V20.428C23.3908 22.9081 19.5513 25.8096 18.8014 26.4119C17.4636 27.4871 16.9375 27.436 16.4116 27.1289Z" fill="#316DC2"/>
<path d="M23.2368 18.5299C23.2368 18.5299 25.6348 19.7355 25.8055 24.5872L24.6437 24.267L23.7142 26.2415C23.3209 20.9288 21.1795 20.1584 21.1795 20.1584L23.2368 18.5299Z" fill="#98B8E6"/>
</svg>
